<?xml version="1.0" encoding="UTF-8"?>
<svg id="Layer_1" data-name="Layer 1" xmlns="http://www.w3.org/2000/svg" xmlns:xlink="http://www.w3.org/1999/xlink" viewBox="0 0 637.61 483.31">
  <defs>
    <style>
      .cls-1, .cls-2 {
        fill: none;
      }

      .cls-3, .cls-4, .cls-2 {
        isolation: isolate;
      }

      .cls-5 {
        clip-path: url(#clippath-1);
      }

      .cls-6 {
        fill: #fff;
      }

      .cls-4 {
        opacity: .2;
      }

      .cls-4, .cls-2 {
        mix-blend-mode: multiply;
      }

      .cls-4, .cls-7 {
        fill: #a46e40;
      }

      .cls-2 {
        opacity: .5;
        stroke: #a46e40;
        stroke-miterlimit: 10;
        stroke-width: 9.33px;
      }

      .cls-8 {
        clip-path: url(#clippath);
      }

      .cls-9 {
        fill: #ececec;
      }
    </style>
    <clipPath id="clippath">
      <path class="cls-1" d="M212.15,56.89C75.72,135.66-.39,278.75,0,425.72c127.09,73.81,289.08,79.45,425.48.71,136.41-78.76,212.52-221.85,212.13-368.84-127.09-73.81-289.08-79.45-425.48-.69h.02Z"/>
    </clipPath>
    <clipPath id="clippath-1">
      <path class="cls-1" d="M212.15,56.89C78.3,134.16,2.51,273.35.06,417.37c-.09,5.16,2.69,9.97,7.2,12.47,125.96,69.88,284.4,73.84,418.22-3.41,133.82-77.27,209.61-216.45,212.07-360.5.09-5.16-2.69-9.97-7.2-12.47-125.96-69.88-284.4-73.84-418.22,3.43h.02Z"/>
    </clipPath>
  </defs>
  <g class="cls-3">
    <g id="Layer_1-2" data-name="Layer 1">
      <g>
        <path class="cls-7" d="M212.15,56.89C78.3,134.16,2.51,273.35.06,417.37c-.09,5.16,2.69,9.97,7.2,12.47,125.96,69.88,284.4,73.84,418.22-3.41,133.82-77.27,209.61-216.45,212.07-360.5.09-5.16-2.69-9.97-7.2-12.47-125.96-69.88-284.4-73.84-418.22,3.43h.02Z"/>
        <g class="cls-8">
          <g>
            <rect class="cls-6" x="83.6" y="145.78" width="63.49" height="426.7" transform="translate(-164.11 105.79) rotate(-30)"/>
            <rect class="cls-6" x="490.52" y="-89.16" width="63.51" height="426.7" transform="translate(7.88 277.78) rotate(-30)"/>
          </g>
        </g>
        <path class="cls-9" d="M422.44,167.17l-219.97,127c-6.07,3.51-8.16,11.28-4.65,17.34,3.51,6.07,11.28,8.16,17.34,4.65l219.97-127c6.07-3.51,8.16-11.28,4.65-17.34-3.51-6.07-11.28-8.16-17.34-4.65h0Z"/>
        <path class="cls-2" d="M443.46,244.84l-184.22,106.37c-31.14,17.96-70.94,7.3-88.92-23.82-17.98-31.14-7.3-70.94,23.82-88.92l184.22-106.37c31.14-17.96,70.94-7.3,88.9,23.84,17.98,31.14,7.32,70.94-23.82,88.9"/>
        <g>
          <path class="cls-6" d="M247.5,321.33c-6.07,3.51-13.85,1.42-17.34-4.65l-20.63-35.75c-3.51-6.07-1.42-13.83,4.65-17.34,6.07-3.51,13.83-1.42,17.34,4.65l20.63,35.75c3.51,6.07,1.42,13.85-4.65,17.34h0Z"/>
          <path class="cls-6" d="M291.48,295.92c-6.07,3.51-13.85,1.44-17.34-4.65l-20.63-35.75c-3.51-6.09-1.42-13.83,4.65-17.34,6.07-3.51,13.83-1.42,17.34,4.65l20.63,35.73c3.51,6.07,1.42,13.85-4.65,17.34v.02Z"/>
          <path class="cls-6" d="M335.49,270.51c-6.07,3.51-13.83,1.42-17.34-4.65l-20.63-35.73c-3.51-6.09-1.42-13.85,4.65-17.36,6.07-3.51,13.83-1.42,17.34,4.65l20.63,35.75c3.51,6.07,1.42,13.85-4.65,17.34h0Z"/>
          <path class="cls-6" d="M379.47,245.12c-6.07,3.51-13.83,1.44-17.34-4.65l-20.63-35.75c-3.51-6.07-1.42-13.83,4.65-17.34,6.07-3.51,13.83-1.42,17.34,4.65l20.63,35.73c3.51,6.07,1.42,13.83-4.65,17.34v.02Z"/>
          <path class="cls-6" d="M423.47,219.72c-6.07,3.51-13.85,1.42-17.34-4.65l-20.63-35.75c-3.51-6.09-1.42-13.83,4.65-17.34s13.83-1.44,17.34,4.65l20.63,35.75c3.51,6.07,1.42,13.85-4.65,17.34Z"/>
        </g>
        <g class="cls-5">
          <path class="cls-4" d="M-59.97,460.7c151.01,87.7,343.47,94.4,505.55.84,162.08-93.58,252.51-263.6,252.04-438.25L-59.97,460.7Z"/>
        </g>
      </g>
    </g>
  </g>
</svg>